<svg width="169" height="37" viewBox="0 0 169 37" fill="none" xmlns="http://www.w3.org/2000/svg">
<path d="M85.0572 25.7793L84.4437 21.8069H78.4542L76.2792 25.7793H73L81.778 10.2317H85.6595L88.314 25.7793H85.0572ZM83.2391 12.6262C83.083 13.097 82.7186 13.8768 82.146 14.9655L79.7815 19.3572H84.1872L83.4399 14.3697C83.306 13.3766 83.2391 12.7954 83.2391 12.6262Z" fill="white"/>
<path d="M95.6866 13.84L94.3705 20.4055C94.1772 21.3103 94.0805 21.9172 94.0805 22.2262C94.0805 23.1752 94.6456 23.6497 95.7759 23.6497C96.5269 23.6497 97.2184 23.3517 97.8505 22.7559C98.49 22.16 98.8952 21.417 99.0662 20.5269L100.382 13.84H103.528L101.676 23.2303C101.557 23.8115 101.416 24.6611 101.252 25.7793H98.2632C98.2632 25.7131 98.2966 25.4041 98.3635 24.8524C98.4379 24.3007 98.4937 23.9292 98.5308 23.7379H98.4974C97.9323 24.5251 97.3114 25.0989 96.6347 25.4593C95.9655 25.8124 95.1996 25.989 94.3371 25.989C93.2068 25.989 92.3554 25.7205 91.7829 25.1834C91.2103 24.6464 90.924 23.8703 90.924 22.8552C90.924 22.6713 90.95 22.377 91.0021 21.9724C91.0541 21.5605 91.1062 21.2515 91.1582 21.0455L92.5748 13.84H95.6866Z" fill="white"/>
<path d="M108.134 25.9559C107.212 25.9559 106.498 25.7425 105.993 25.3159C105.487 24.8818 105.234 24.2676 105.234 23.4731C105.234 22.9508 105.294 22.3733 105.413 21.7407L106.55 15.9366H104.9L105.312 13.84H107.119L108.647 11.0372H110.61L110.075 13.84H112.328L111.938 15.9366H109.651L108.491 21.84C108.409 22.252 108.368 22.5793 108.368 22.8221C108.368 23.1605 108.454 23.4143 108.625 23.5834C108.803 23.7453 109.041 23.8262 109.339 23.8262C109.577 23.8262 109.978 23.7784 110.543 23.6828L110.186 25.691C109.584 25.8676 108.9 25.9559 108.134 25.9559Z" fill="white"/>
<path d="M124.764 18.2428C124.764 19.7655 124.46 21.1191 123.85 22.3034C123.247 23.4878 122.389 24.4 121.273 25.04C120.165 25.68 118.912 26 117.514 26C115.893 26 114.611 25.5697 113.666 24.709C112.722 23.8409 112.25 22.6566 112.25 21.1559C112.25 19.6772 112.544 18.3678 113.131 17.2276C113.726 16.0874 114.57 15.2046 115.663 14.5793C116.756 13.9467 118.002 13.6303 119.399 13.6303C121.147 13.6303 122.478 14.0349 123.392 14.8441C124.307 15.646 124.764 16.7789 124.764 18.2428ZM121.485 18.4745C121.485 16.6575 120.712 15.749 119.165 15.749C118.318 15.749 117.641 15.9697 117.135 16.411C116.637 16.8524 116.247 17.5255 115.964 18.4303C115.682 19.3278 115.54 20.1922 115.54 21.0234C115.54 22.9287 116.314 23.8814 117.86 23.8814C118.693 23.8814 119.351 23.6754 119.834 23.2634C120.325 22.8441 120.708 22.2115 120.983 21.3655C121.266 20.5195 121.433 19.5559 121.485 18.4745Z" fill="white"/>
<path d="M133.765 25.989C131.535 25.989 129.787 25.4078 128.523 24.2455C127.259 23.0759 126.627 21.4428 126.627 19.3462C126.627 17.5071 127.014 15.874 127.787 14.4469C128.568 13.0198 129.668 11.9237 131.089 11.1586C132.516 10.3862 134.16 10 136.018 10C137.714 10 139.13 10.3789 140.268 11.1366C141.413 11.8943 142.183 12.9536 142.577 14.3145L139.432 15.1752C139.216 14.3439 138.799 13.7002 138.182 13.2441C137.565 12.788 136.784 12.56 135.84 12.56C134.658 12.56 133.62 12.8359 132.728 13.3876C131.836 13.9393 131.152 14.7228 130.676 15.7379C130.2 16.7531 129.962 17.9228 129.962 19.2469C129.962 20.5563 130.315 21.5862 131.022 22.3366C131.735 23.0795 132.739 23.451 134.033 23.451C134.836 23.451 135.617 23.3554 136.375 23.1641C137.134 22.9729 137.781 22.7154 138.316 22.3917L138.829 19.8759H135.015L135.45 17.5807H142.298L141.127 23.8483C139.967 24.6354 138.807 25.1908 137.647 25.5145C136.487 25.8308 135.193 25.989 133.765 25.989Z" fill="white"/>
<path d="M147.284 20.5269C147.232 20.8064 147.206 21.1338 147.206 21.509C147.206 22.2887 147.377 22.8883 147.719 23.3076C148.068 23.7195 148.581 23.9255 149.258 23.9255C150.351 23.9255 151.143 23.3039 151.634 22.0607L154.366 22.8772C153.809 24.0469 153.117 24.8598 152.292 25.3159C151.466 25.772 150.384 26 149.046 26C147.462 26 146.224 25.577 145.332 24.731C144.44 23.8777 143.993 22.6897 143.993 21.1669C143.993 19.6441 144.261 18.3126 144.796 17.1724C145.332 16.0248 146.09 15.1457 147.072 14.5352C148.061 13.9246 149.202 13.6193 150.496 13.6193C152.05 13.6193 153.247 14.0166 154.087 14.811C154.935 15.5982 155.359 16.7126 155.359 18.1545C155.359 18.8828 155.27 19.6736 155.091 20.5269H147.284ZM152.459 18.4634L152.493 17.8455C152.493 17.0584 152.307 16.4846 151.935 16.1241C151.57 15.7637 151.091 15.5834 150.496 15.5834C149.782 15.5834 149.18 15.8299 148.689 16.3228C148.206 16.8083 147.86 17.5218 147.652 18.4634H152.459Z" fill="white"/>
<path d="M164.237 25.7793L165.554 19.2138C165.747 18.3016 165.843 17.6947 165.843 17.3931C165.843 16.4441 165.278 15.9697 164.148 15.9697C163.397 15.9697 162.702 16.2713 162.062 16.8745C161.423 17.4777 161.021 18.217 160.858 19.0924L159.542 25.7793H156.396L158.248 16.389C158.367 15.8078 158.508 14.9582 158.672 13.84H161.661C161.661 13.9062 161.624 14.2152 161.549 14.7669C161.482 15.3186 161.43 15.6901 161.393 15.8814H161.427C161.984 15.1163 162.598 14.5499 163.267 14.1821C163.944 13.8143 164.717 13.6303 165.587 13.6303C166.717 13.6303 167.569 13.8989 168.141 14.4359C168.714 14.9729 169 15.749 169 16.7641C169 16.948 168.974 17.2423 168.922 17.6469C168.87 18.0441 168.818 18.3531 168.766 18.5738L167.349 25.7793H164.237Z" fill="white"/>
<path d="M30.5652 0H21.2195L0 37H7.89027L13.176 27.5262H27.6542L29.1097 37H37L30.5652 0ZM16.3934 21.7077L22.1387 11.2641C23.5176 8.65323 24.4369 6.78831 24.7433 5.66935C24.7433 6.04234 24.8965 7.45968 25.2029 9.84677L27.0414 21.7077H16.3934Z" fill="white"/>
<path d="M35.9228 13.7118C35.9955 13.5667 36.0682 13.4216 36.1408 13.2765C37.2311 10.9549 38.8301 9.14119 40.8652 7.8353C42.9002 6.52942 45.2987 5.94903 47.988 5.94903C50.1684 5.94903 51.9128 6.45687 53.3664 7.54511C54.7474 8.63334 55.7649 10.0843 56.201 12.0432L63.3965 10.0843C62.4516 6.81961 60.7073 4.35295 58.0907 2.61177C55.4742 0.870589 52.2035 0 48.3514 0C44.0631 0 40.3564 0.870589 37.0857 2.68432C36.1408 3.19216 35.196 3.8451 34.3965 4.49804L35.9228 13.7118Z" fill="#20C583"/>
<path d="M46.0258 22.8529H54.7476L53.5847 28.6568C52.3491 29.3823 50.8955 30.0353 49.1512 30.4706C47.4068 30.9059 45.5897 31.1235 43.7727 31.1235C41.7376 31.1235 40.0659 30.6882 38.6123 29.8902L39.7752 36.7823C40.8654 36.9274 41.9557 37 43.1186 37C46.3892 37 49.3692 36.6372 51.9857 35.9117C54.6023 35.1863 57.2915 33.8804 59.9807 32.0666L62.67 17.5568H47.0434L46.0258 22.8529Z" fill="#20C583"/>
</svg>
