<svg width="18" height="18" viewBox="0 0 18 18" fill="none" xmlns="http://www.w3.org/2000/svg">
<g clip-path="url(#clip0)">
<path d="M17.8246 0.0735882C17.6947 -0.0171146 17.5249 -0.0242864 17.3879 0.0540287L0.206169 9.87218C0.0659541 9.95206 -0.0139718 10.1071 0.00202104 10.2677C0.0180139 10.4283 0.126665 10.5645 0.279691 10.6153L5.41059 12.3254L7.38841 17.7316C7.44793 17.8942 7.60253 18.0001 7.77232 18.0001C7.78789 18.0001 7.80388 17.9993 7.81945 17.9973C7.92998 17.9846 8.02299 17.9251 8.08872 17.8427L11.0033 14.1898L15.0069 15.5244C15.0492 15.5387 15.0928 15.5455 15.1363 15.5455C15.2099 15.5455 15.283 15.5255 15.3473 15.4868C15.45 15.4253 15.5203 15.3218 15.5399 15.2036L17.9944 0.476362C18.0204 0.320461 17.9544 0.163869 17.8246 0.0735882ZM8.01923 12.6299C7.97727 12.6871 7.9505 12.7538 7.94214 12.8241L7.57262 15.8531L6.20233 12.1078L14.2032 4.29113L8.01923 12.6299Z" fill="#4EEEB5"/>
</g>
<defs>
<clipPath id="clip0">
<rect width="18" height="18" fill="white"/>
</clipPath>
</defs>
</svg>
