<svg width="18" height="18" viewBox="0 0 18 18" fill="none" xmlns="http://www.w3.org/2000/svg">
<g clip-path="url(#clip0)">
<path d="M13.2094 11.6195C14.0951 10.4099 14.6249 8.92416 14.6249 7.31349C14.6249 3.28153 11.3444 0.00100708 7.31245 0.00100708C3.28048 0.00100708 0 3.28153 0 7.31349C0 11.3455 3.28052 14.626 7.31248 14.626C8.92315 14.626 10.409 14.0961 11.6186 13.2103L16.4092 18.0009L18 16.4101C18 16.4101 13.2094 11.6195 13.2094 11.6195ZM7.31248 12.376C4.52086 12.376 2.25001 10.1051 2.25001 7.31349C2.25001 4.52187 4.52086 2.25102 7.31248 2.25102C10.1041 2.25102 12.375 4.52187 12.375 7.31349C12.375 10.1051 10.1041 12.376 7.31248 12.376Z" fill="#4EEEB5"/>
</g>
<defs>
<clipPath id="clip0">
<rect width="18" height="18" fill="white"/>
</clipPath>
</defs>
</svg>
